<svg xmlns="http://www.w3.org/2000/svg" viewBox="0 0 566.93 566.93"><circle cx="283.46" cy="283.46" r="283.46" fill="#ee1c23"/><g fill="none" stroke="#fff" stroke-linejoin="round" stroke-width="14.17"><path d="M265.6 135.36c-9.54 2.58-22.73 19.43-21.08 34.26s2.3 19.43-2 23.06-14.5-3.3-21.74-.66-6.92 12.85-14.83 13.5-35.58-10.55-41.84 1.64 5.6 24.05 10.87 36.24 4 18.45-6.9 21.74-6.92 9.56 0 14.5 3 13.84-8.9 21.74-31 18.12-22.4 36.9 27.34 14.5 40.52 14.82 16.8 7.9 14.17 17.14 2.3 12.18 12.2 14.16 19.43 2.64 19.76 23.4 9.23 28 26.36 19.44 17.46-35.9 33.6-35.58 22.74 22.73 32.95 32.28 31.3 17.46 31-15.48 13.5-23.06 25.68-34.92-2-24.05 10.88-33.93 42.8 19.65 48.4-13.62-40.17-26.9-40.83-46.34 18.78-19.44 13.18-29-27.34 8.9-31.63-7.58 14.83-31.3 6.92-46.12-26.35-1.65-42.17 7.58-27.67 17.13-36.9-8.9-10-33.22-14.82-48.42c-1.98-6.2-8.24-15.15-20.43-11.85z"/><circle cx="333.07" cy="148.82" r="14.17"/><ellipse cx="406.93" cy="407.53" rx="19.62" ry="25.41" transform="matrix(.707107 -.707107 .707107 .707107 -168.98 407.11)"/><circle cx="155.91" cy="411.02" r="21.26" transform="matrix(.707107 -.707107 .707107 .707107 -244.97 230.63)"/><circle cx="177.17" cy="162.99" r="14.17" transform="matrix(.922471 -.386067 .386067 .922471 -49.19 81.02)"/><ellipse cx="424.93" cy="141.47" rx="24.21" ry="17.19" transform="matrix(.707107 -.707107 .707107 .707107 24.43 341.91)"/></g></svg>