<svg xmlns="http://www.w3.org/2000/svg" viewBox="0 0 566.93 566.93"><style><![CDATA[.D{stroke-linejoin:round}.E{stroke-width:14.17}.F{stroke-linecap:round}]]></style><circle cx="283.46" cy="283.46" r="283.46" fill="#ee1c23"/><g fill="none" stroke="#fff" class="D"><g class="F"><path d="M120.48 425.2c6.23 0 10.55-2.7 14.15-6.45 8-8.36 12.48-21.9 26.6-21.9 20.43 0 20.58 28.35 40.75 28.35s20.32-28.35 40.75-28.35 20.58 28.35 40.75 28.35 20.32-28.35 40.74-28.35S344.8 425.2 365 425.2s20.32-28.35 40.75-28.35 20.58 28.35 40.75 28.35m-326.03-42.52c6.24 0 10.56-2.7 14.16-6.45 8-8.36 12.48-21.9 26.6-21.9 20.43 0 20.58 28.35 40.75 28.35s20.32-28.35 40.75-28.35 20.57 28.35 40.74 28.35 20.32-28.35 40.75-28.35 20.58 28.35 40.75 28.35 20.32-28.35 40.75-28.35 20.58 28.35 40.75 28.35" stroke-width="13.88"/><path d="M163 354.33V212.6m240.94 141.73V212.6" class="E"/></g><path d="M120.47 212.6l163-113.4 163 113.4h-326z" class="E"/><path d="M361.42 148.82V113.4h28.34v56.7M318.9 354.33V269.3h56.7v106.3" class="F E"/><path d="M191.34 269.3h85.04V326h-85.04v-56.7z" class="E"/><path d="M233.86 269.3V326" class="E F"/></g></svg>