<svg xmlns="http://www.w3.org/2000/svg" viewBox="0 0 566.93 566.93"><circle cx="283.46" cy="283.46" r="283.46" fill="#ee1c23"/><g fill="none" stroke="#fff" stroke-linejoin="round" stroke-width="14.17"><path d="M347.25,304.73a42.51,42.51,0,0,1,42.51,42.52v14.17H177.17V347.25a42.5,42.5,0,0,1,42.51-42.52Z"/><path d="M389.76 361.42v-70.87a28.34 28.34 0 1 1 56.68 0v63.78a63.79 63.79 0 0 1-63.8 63.78H184.27a63.79 63.79 0 0 1-63.8-63.78v-63.78a28.34 28.34 0 1 1 56.68 0v70.87m42.55 63.78a21.27 21.27 0 0 1-42.53 0m212.6 0a21.27 21.27 0 0 1-42.53 0M163 262.2V148.8a28.32 28.32 0 0 1 28.31-28.35h184.3a28.32 28.32 0 0 1 28.32 28.35v113.4" stroke-linecap="round"/></g></svg>