<svg xmlns="http://www.w3.org/2000/svg" viewBox="0 0 566.93 566.93"><circle cx="283.46" cy="283.46" r="283.46" fill="#ee1c23"/><path d="M120.47 148.82a21.26 21.26 0 0 1 21.26-21.26h290.55a14.18 14.18 0 1 1 0 28.35h-1.2a21.27 21.27 0 0 1-34.24 8.81 21.3 21.3 0 0 1-23.85 3.04 28.36 28.36 0 0 1-43.33 10.39 35.44 35.44 0 0 1-64.94-2 21.26 21.26 0 0 1-37.9-11.54 21.27 21.27 0 0 1-23.9 3.15 28.37 28.37 0 0 1-51.52 0 21.28 21.28 0 0 1-30.94-18.94zM244.43 452.7s-46-25.75-46-68.25c0-64.5 83.75-94.25 83.75-142.75 0-8.75-8-22-8-22s52.5 23 52.5 88.5c0 37.75-15.5 64.25-15.5 64.25s12.88-2.87 22.63-35.62c14.12 17.74 19.87 37.5 19.87 53.74 0 43.63-36.75 63.88-36.75 63.88a69.73 69.73 0 0 0 1-10.13c0-19-10.88-26.37-10.88-26.37s-1.87 10.12-5.12 15.25-10.13 11.12-10.13 11.12 2.38-5.75 2.38-15c0-23.87-17.25-39.37-17.25-65.87a66.84 66.84 0 0 1 .56-7.88s-38.2 16.25-38.2 67.63a84.49 84.49 0 0 0 5.13 29.5z" fill="none" stroke="#fff" stroke-linejoin="round" stroke-width="14.17"/></svg>