<svg xmlns="http://www.w3.org/2000/svg" viewBox="0 0 566.93 566.93"><circle cx="283.46" cy="283.46" r="283.46" fill="#ee1c23"/><g fill="none" stroke="#fff" stroke-linejoin="round" stroke-width="14.17"><path d="M134.65 290.55a151 151 0 0 1 1.52-21.4c15.9-2.9 34.38-49.94 55.17-70.72 13.06-13.07 46.54-36.5 58.2-52.82a150.17 150.17 0 0 1 67.83 0c11.67 16.33 45.15 39.75 58.2 52.82 20.78 20.78 39.27 67.8 55.17 70.72a151 151 0 0 1 1.52 21.4c0 82.2-66.62 163-148.82 163s-148.8-80.8-148.8-163z"/><path d="M248.03 297.64h70.87l-35.44 42.52-35.43-42.52z"/><g stroke-linecap="round"><path d="M283.46,340.16v21.26s-44.92,40.12-77.95,7.08"/><path d="M283.46,340.16v21.26s44.93,40.12,78,7.08"/></g><path d="M205.5 226.77a14.175 14.175 0 1 1 28.35 0v28.35a14.175 14.175 0 1 1-28.35 0v-28.35zm127.57 0a14.175 14.175 0 1 1 28.35 0v28.35a14.175 14.175 0 1 1-28.35 0v-28.35z"/><path d="M304.74 375.6v14.17a21.27 21.27 0 0 1-42.54 0V375.6" stroke-linecap="round"/><path d="M134.65 141.73c-6.26 10.74-14.18 60.5-14.18 70.87s-2.06 56.7 14.18 56.7 35.24-49.4 56.7-70.86 98-70.87 42.52-70.87-42.1 7.76-63.78 7.1-29.17-3.65-35.43 7.08zm297.63 0c6.26 10.74 14.18 60.5 14.18 70.87s2.06 56.7-14.18 56.7-35.28-49.4-56.7-70.86-98-70.87-42.52-70.87 42.1 7.76 63.78 7.1 29.15-3.65 35.43 7.08z"/></g></svg>