<svg xmlns="http://www.w3.org/2000/svg" viewBox="0 0 566.93 566.93"><circle cx="283.46" cy="283.46" r="283.46" fill="#ee1c23"/><g fill="none" stroke="#fff" stroke-linejoin="round" stroke-width="14.17"><path d="M134.652 333.074L333.08 134.645l99.214 99.214-198.428 198.428z"/><g stroke-linecap="round"><path d="M134.65 333.07l-14.18 14.17m28.35 0l-14.17 14.18m28.35 0l-14.17 14.17m28.34.01L163 389.76m28.34 0l-14.17 14.18m28.33 0l-14.17 14.17m28.37-.01l-14.18 14.17m28.34.01l-14.17 14.18m127.56-326l-14.18 14.18m28.35 0l-14.17 14.17m28.35 0L361.42 163m28.34 0l-14.17 14.18m28.35-.01l-14.18 14.17m28.34 0l-14.17 14.17m28.35-.01l-14.18 14.2m28.36 0l-14.18 14.17"/><path d="M134.65 333.07h148.82v-99.2H418.1"/><path d="M333.08 134.65v148.82h-99.22v134.65M163 361.42h42.52v35.43M361.42 163v42.52h42.52M262.2 403.94v-42.52h42.52l7.08-7.1V311.8h42.52l7.1-7.1v-42.5h42.52M163 304.72h42.52V262.2l7.1-7.08h42.52V212.6l7.08-7.1h42.52V163"/></g></g></svg>