<svg xmlns="http://www.w3.org/2000/svg" viewBox="0 0 566.93 566.93"><circle cx="283.46" cy="283.46" r="283.46" fill="#ee1c23"/><g fill="none" stroke="#fff" stroke-linejoin="round" stroke-width="14.17"><ellipse cx="283.46" cy="304.73" rx="77.95" ry="141.73"/><path d="M219.7 233.86h127.55m-113.4-28.36h14.17m85.04 0H318.9m-35.44 28.36v212.6m-77.96-113.4L163 361.42l-42.52 85.04m240.94-113.4l42.52 28.35 42.52 85.04M205.5 276.38H163l-42.52 56.7m240.94-56.7h42.52l42.52 56.7M212.6 233.86H163l-42.52-42.52m233.85 42.52h49.6l42.52-42.52M276.38 163s-14.32-42.52-155.9-42.52M290.55 163s14.32-42.52 155.9-42.52" stroke-linecap="round"/></g></svg>