<svg xmlns="http://www.w3.org/2000/svg" xmlns:xlink="http://www.w3.org/1999/xlink" viewBox="0 0 522.2 372.6"><linearGradient  gradientUnits="userSpaceOnUse" x1="-40.375" y1="606.416" x2="-39.668" y2="605.708"><stop offset="0" stop-color="#20ac4b"/><stop offset=".983" stop-color="#19361a"/></linearGradient><circle transform="matrix(.9997 -.022983 .022983 .9997 -1.6292 9.0249)" cx="391.8" cy="75.4" r="67.2" fill="#00aeef"/><defs><circle id="B" transform="matrix(.1263 -.992 .992 .1263 -22.0419 347.558)" cx="186.3" cy="186.3" r="186.3"/><path id="C" d="M409.2 27.4c0-1.4.8-2.2 2-2.2s2 .9 2 2.2v17.3c0 1.4-.8 2.2-2 2.2s-2-.9-2-2.2V27.4z"/></defs><use xlink:href="#B" fill="#fff"/><clipPath id="D"><use xlink:href="#B"/></clipPath><g clip-path="url(#D)" fill="#ed1c24"><path d="M204.9 191.7v-18.4c-23.8-5.6-37.6-6-41-6h-1c-12.8.1-22.5 3.5-28.9 10.1-8.8 9-8.8 21.4-8.8 21.5v.4c0 .1-.2 13.4 9.2 23.1 6.9 7.1 17.6 10.8 31.6 10.9h.2c11.7 0 20.9-3.4 27.3-10 11.8-12 11.5-31.1 11.5-31.3l-.1-.3zm77.4-8.3c13.8 1.8 24-.2 30.3-5.9 7.6-6.8 7.5-17.3 7.5-17.4v-.3c0-.1 0-12.8-9.1-21.8-6.6-6.5-16.6-9.7-29.7-9.5-30.1.6-36.9 30.8-38.4 42.3l17.1 6.6c12 4.7 22.2 6 22.3 6zM186.3 0C83.4 0 0 83.4 0 186.3c0 31.3 7.7 60.7 21.3 86.6 6.6 5.2 15.5 7.9 26.5 7.9 12.6 0 22.3-3.5 28.8-10.5 11.2-11.9 10.2-30.4 10.2-30.6V124.8c0-3.7 3-6.6 6.6-6.6s6.6 3 6.6 6.6v114.3c.1 2.7.7 24.7-13.7 40.1C77.2 289 64.2 294 47.8 294c-5.2 0-10-.5-14.6-1.5 33.6 48.4 89.6 80.1 153.1 80.1 102.9 0 186.3-83.4 186.3-186.3S289.2 0 186.3 0zM329 227.7c-.8.8-18.4 18.8-42.7 18.8-1.1 0-2.3 0-3.4-.1-28.2-2-41.3-16.2-47.3-27.7-6.1-11.7-6.2-23-6.2-24.7l-.2-13.9-11.1-3.3v14.9c0 2.1.1 25.1-15.1 40.7-9.1 9.4-21.6 14.1-37.1 14-17.8-.1-31.7-5.1-41.2-15-12.7-13.2-12.8-30.4-12.8-32.4s.4-18.3 12.5-30.8c9-9.2 21.8-13.9 38.2-14.1 1.8-.1 15.7-.3 41.4 5.5-.7-3.5-1.9-7.8-4-12-6.5-12.8-18.6-19.6-36.1-20.2-20.6-.7-29.8 11.4-29.8 11.5-2.2 2.9-6.3 3.6-9.3 1.4-2.9-2.2-3.6-6.3-1.4-9.3.5-.7 13.5-17.8 41-16.9 28.5 1 41.6 15.8 47.7 28 4 8 5.3 15.9 5.8 20.9 3.9 1 7.9 2.2 12.2 3.5.9-5.4 2.7-12.8 6-20.4 8.9-19.7 24.3-30.3 44.8-30.8 16.9-.3 30.2 4.2 39.5 13.4 12.5 12.5 12.8 29.1 12.8 31.1s-.1 16.8-11.7 27.4c-9.4 8.5-23.1 11.6-41 9.3-.4-.1-11.8-1.5-25.4-6.6l-12.7-4.9.1 9.1c0 .1-.2 9.4 4.9 18.8 6.5 12.2 18.8 19 36.3 20.2 19.7 1.4 35.5-14.5 35.7-14.7 2.5-2.6 6.7-2.7 9.3-.1 2.8 2.6 2.8 6.8.3 9.4z"/></g><g fill="#fff"><path d="M365.1 35.2c-.3-.8-.4-1.3-.4-1.9 0-.9.8-1.6 2-1.6 1 0 1.7.6 1.9 1.6L371 41h.1l2.4-7.5c.3-1.1.9-1.8 2-1.8 1.2 0 1.7.7 2.1 1.8L380 41h.1l2.3-7.7c.2-1 .9-1.6 1.9-1.6 1.2 0 2 .7 2 2 0 .4-.2.9-.4 1.5l-3.5 9.7c-.4 1.2-1.1 2-2.4 2-1.2 0-2-.7-2.3-1.9l-2.1-6.5h-.1l-2.1 6.5c-.4 1.2-1.1 1.9-2.3 1.9-1.3 0-2-.9-2.4-2l-3.6-9.7zm25.6 5.5c.3 2 1.9 2.9 3.8 2.9 2.1 0 3.5-1.6 4.6-1.6.9 0 1.6.9 1.6 1.7 0 1.7-3.6 3.4-6.6 3.4-4.5 0-7.6-3.3-7.6-7.8 0-4.1 3-7.8 7.2-7.8 4.4 0 7.3 4 7.3 7.4 0 1.2-.5 1.8-1.8 1.8h-8.5zm6.4-2.7c-.2-1.8-1.4-3.1-3.2-3.1s-3 1.4-3.2 3.1h6.4zm8.1-4.4c-.3.6-1.1 1-1.6 1-1 0-1.9-.8-1.9-1.9 0-.4.2-.8.3-1.1l2.3-4.2c.4-.6 1.2-1 1.6-1 1 0 1.9.8 1.9 1.9 0 .4-.2.8-.4 1.1l-2.2 4.2z"/><use xlink:href="#C"/><use xlink:href="#C" x="6.2"/><path d="M367.9 60.2h-.9c-1.1 0-1.8-.7-1.8-1.8a1.79 1.79 0 0 1 1.8-1.8h.9v-2.4c0-1.3.8-2.2 2-2.2s2 .9 2 2.2v2.4h1.1c1 0 1.9.5 1.9 1.8s-.9 1.8-1.9 1.8h-1v9.3c0 1.4-.8 2.2-2 2.2s-2-.9-2-2.2v-9.3zm21.2 9c0 1 0 2.6-1.9 2.6-1.2 0-1.7-.6-1.9-1.7-1 1.2-2.3 1.9-3.8 1.9-3.8 0-6.7-3.2-6.7-7.8 0-4.4 3-7.8 6.7-7.8 1.5 0 2.9.6 3.8 1.9.1-1 1-1.7 1.9-1.7 1.9 0 1.9 1.6 1.9 2.6v10zm-7.2-.9c2.1 0 3.1-2.1 3.1-4.1 0-1.9-1-4.1-3.1-4.1-2.2 0-3.2 2.2-3.2 4.1s1 4.1 3.2 4.1zm9.5-16c0-1.4.8-2.2 2-2.2s2 .9 2 2.2v9.4l4.4-4.3c.6-.6 1.3-.9 1.8-.9 1 0 1.7.9 1.7 1.8 0 .6-.2 1.1-.8 1.6l-3.6 3.2 4.7 5.6c.4.4.5.9.5 1.4 0 1.1-.8 1.9-1.9 1.9-.7 0-1.3-.5-1.9-1.2l-4.9-6.1h-.1v4.9c0 1.4-.8 2.2-2 2.2s-2-.9-2-2.2V52.3zm17.2 13.2c.3 2 1.9 2.9 3.8 2.9 2.1 0 3.5-1.6 4.6-1.6.9 0 1.6.9 1.6 1.7 0 1.7-3.6 3.4-6.6 3.4-4.6 0-7.6-3.3-7.6-7.8 0-4.1 3-7.8 7.2-7.8 4.4 0 7.3 4 7.3 7.4 0 1.2-.5 1.8-1.8 1.8h-8.5zm6.4-2.7c-.2-1.8-1.4-3.1-3.2-3.1s-3 1.4-3.2 3.1h6.4zm-37.7 20.4c-1 0-1.9-.8-3.2-.8-2.3 0-3.4 2-3.4 4.1 0 2 1.2 4.1 3.4 4.1 1 0 2.5-.8 3-.8 1 0 1.7.8 1.7 1.8 0 2.1-3.5 2.8-4.9 2.8-4.3 0-7.2-3.6-7.2-7.8 0-4.1 3-7.8 7.2-7.8 1.6 0 4.9.6 4.9 2.6 0 .7-.6 1.8-1.5 1.8zm16.7 8.3c0 1 0 2.6-1.9 2.6-1.2 0-1.7-.6-1.9-1.7-1 1.2-2.3 1.9-3.8 1.9-3.8 0-6.7-3.2-6.7-7.8 0-4.4 3-7.8 6.7-7.8 1.5 0 2.9.6 3.8 1.9.1-1 1-1.7 1.9-1.7 1.9 0 1.9 1.6 1.9 2.6v10zm-7.2-.9c2.1 0 3.1-2.1 3.1-4.1 0-1.9-1-4.1-3.1-4.1-2.2 0-3.2 2.2-3.2 4.1 0 2 1.1 4.1 3.2 4.1zm9.4-9.7c0-1.4 1.1-2 2.1-2 1.1 0 2 .4 2 1.7h.1c.8-1.1 1.6-1.7 2.8-1.7 1 0 2 .7 2 2.2 0 1.3-1.2 1.4-2.4 2s-2.4 1.1-2.4 2.7V92c0 1.4-.8 2.2-2 2.2s-2-.9-2-2.2V80.9zm12.2 7c.3 2 1.9 2.9 3.8 2.9 2.1 0 3.5-1.6 4.6-1.6.9 0 1.7.9 1.7 1.7 0 1.7-3.6 3.4-6.6 3.4-4.5 0-7.6-3.3-7.6-7.8 0-4.1 3-7.8 7.2-7.8 4.4 0 7.3 4 7.3 7.4 0 1.2-.5 1.8-1.8 1.8h-8.6zm6.3-2.7c-.2-1.8-1.4-3.1-3.2-3.1s-3 1.4-3.2 3.1h6.4zm-30.1 27.9c0 4.2-2.9 7.8-7.2 7.8s-7.2-3.6-7.2-7.8c0-4.1 3-7.8 7.2-7.8 4.2-.1 7.2 3.7 7.2 7.8zm-10.4 0c0 1.9 1 4.1 3.2 4.1s3.2-2.1 3.2-4.1c0-1.9-1-4.1-3.2-4.1s-3.2 2.1-3.2 4.1zm13.1-4h-.9c-1.1 0-1.8-.7-1.8-1.8a1.79 1.79 0 0 1 1.8-1.8h.9v-2.1c0-3 1.8-4.6 4.2-4.6 1.4 0 2.8.4 2.8 1.8 0 1.2-.5 1.7-1.7 1.7-.7 0-1.4 0-1.4 1.5v1.7h1.3c1.2 0 2.1.5 2.1 1.8s-.9 1.8-2.1 1.8h-1.3v9.3c0 1.4-.8 2.2-2 2.2s-2-.9-2-2.2v-9.3zm19.1-7.5a2.26 2.26 0 0 1-2.3 2.3c-1.2 0-2.3-1.1-2.3-2.3s1.1-2.2 2.3-2.2c1.2-.1 2.3 1 2.3 2.2zm-4.3 6c0-1.3.8-2.2 2-2.2s2 .9 2 2.2v10.8c0 1.4-.8 2.2-2 2.2s-2-.9-2-2.2v-10.8zm7.3 1.5h-.9c-1.1 0-1.8-.7-1.8-1.8a1.79 1.79 0 0 1 1.8-1.8h.9v-2.4c0-1.3.8-2.2 2-2.2s2 .9 2 2.2v2.4h1.1c1 0 1.9.5 1.9 1.8s-.9 1.8-1.9 1.8h-1.1v9.3c0 1.4-.8 2.2-2 2.2s-2-.9-2-2.2v-9.3z"/></g><path d="M522.2 141.3c0 20.3-16.4 36.7-36.7 36.7s-36.7-16.4-36.7-36.7 16.4-36.7 36.7-36.7 36.7 16.4 36.7 36.7z" fill="#8dc63f"/><path d="M474.2 137.2c-1.8-.8-1.9-1.6-1.9-2.7 0-1.5 1.3-2.9 3-2.9 2.1 0 4.9 3.1 8.2 5.5 0-3-.9-6.5-.9-8.8 0-1.6 1.1-3 3-3s3 1.4 3 3c0 2.3-.9 5.8-.9 8.8 3.3-2.4 6.1-5.5 8.2-5.5 1.7 0 3 1.4 3 2.9 0 1.1-.2 1.9-2 2.7l-7.5 3.1 7.5 3.1c1.8.8 2 1.6 2 2.7 0 1.5-1.3 2.9-3 2.9-2.1 0-4.9-3.1-8.2-5.5 0 3 .9 6.5.9 8.8 0 1.6-1.1 3-3 3s-3-1.4-3-3c0-2.3.9-5.8.9-8.8-3.3 2.4-6.1 5.5-8.2 5.5-1.7 0-3-1.4-3-2.9 0-1.1.2-1.9 1.9-2.7l7.5-3.1-7.5-3.1zm-138.5 66.6a4.23 4.23 0 0 1 4.2 4.2 4.23 4.23 0 0 1-4.2 4.2 4.23 4.23 0 0 1-4.2-4.2 4.23 4.23 0 0 1 4.2-4.2zm0 7.8c1.9 0 3.5-1.6 3.5-3.5 0-2-1.6-3.5-3.5-3.5s-3.5 1.6-3.5 3.5c.1 1.9 1.6 3.5 3.5 3.5zm-.9-1.4c0 .3-.1.5-.4.5-.2 0-.4-.2-.4-.5v-4.3c0-.1 0-.2.2-.2h1.7c1.1 0 1.7.5 1.7 1.4s-.6 1.3-1.2 1.3l1 1.6c.1.1.2.2.2.4 0 .1-.1.3-.4.3-.1 0-.3-.1-.4-.3l-1.2-2h-.9v1.8zm0-2.3h.9c.7 0 1.3 0 1.3-.8 0-.7-.6-.8-1.1-.8h-1.1v1.6z" fill="#fff"/></svg>